<svg width="32" height="32" xmlns="http://www.w3.org/2000/svg" version="1.1" fill="#000000">
 <title>salesforce</title>

 <g>
  <title>Layer 1</title>
  <path fill="#009ddc" id="svg_1" d="m13.515,7.793c0.954,-1.003 2.3,-1.628 3.791,-1.628c0.001,0 0.003,0 0.004,0l0,0c1.971,0.026 3.681,1.116 4.585,2.721l0.014,0.027c0.749,-0.354 1.627,-0.561 2.553,-0.561c0.023,0 0.045,0 0.067,0l-0.003,0c3.559,0.045 6.426,2.941 6.426,6.505c0,3.572 -2.879,6.472 -6.444,6.506l-0.003,0c-0.453,-0.006 -0.892,-0.053 -1.317,-0.137l0.046,0.008c-0.81,1.459 -2.342,2.43 -4.1,2.43c-0.004,0 -0.009,0 -0.013,0l0.001,0c-0.748,-0.007 -1.454,-0.179 -2.086,-0.48l0.03,0.013c-0.84,1.943 -2.74,3.278 -4.952,3.278c-2.304,0 -4.269,-1.448 -5.036,-3.484l-0.012,-0.037c-0.279,0.061 -0.599,0.096 -0.927,0.096c-0.035,0 -0.071,0 -0.106,-0.001l0.005,0c-2.76,-0.014 -4.991,-2.254 -4.991,-5.015c0,-0.011 0,-0.023 0,-0.034l0,0.002c0,-0.001 0,-0.001 0,-0.002c0,-1.854 0.996,-3.476 2.482,-4.36l0.023,-0.013c-0.307,-0.674 -0.486,-1.461 -0.486,-2.29c0,-0.004 0,-0.008 0,-0.011l0,0.001c0.003,-3.199 2.596,-5.792 5.795,-5.795l0,0c0.006,0 0.014,0 0.021,0c1.867,0 3.531,0.872 4.605,2.231l0.009,0.012l0.019,0.018z"/>
  <g id="svg_2" stroke-width="0">
   <path id="svg_3" d="m29.43675,26.15457l-3.119,-5.57329l0,-2.95196l0.80118,0l0,-0.73799l-0.80599,0l0,-0.00443l-0.36534,0.00369l-3.63576,0l0,0.7343l0.80118,0l0,2.91653l-3.1198,5.61536a0.80118,0.73799 0 0 0 0.71626,1.06639l8.01181,0a0.80118,0.73799 0 0 0 0.71545,-1.06861l0.00001,0.00001zm-5.60827,-5.27662l0.08573,-0.15867l0,-3.06782l1.60236,-0.01771l0,3.12686l0.08813,0.15867l1.46376,2.61396l-4.71735,0l1.47738,-2.65528l-0.00001,-0.00001zm-3.119,5.61536l1.23382,-2.22209l5.54097,0l1.23943,2.21397l-8.01421,0.00812l-0.00001,0z" fill="#033770" stroke-dasharray="—"/>
  </g>
 </g>
</svg>